<?xml version="1.0" encoding="UTF-8" standalone="no"?>
<!-- Created with Inkscape (http://www.inkscape.org/) -->

<svg
   xmlns:dc="http://purl.org/dc/elements/1.1/"
   xmlns:cc="http://creativecommons.org/ns#"
   xmlns:rdf="http://www.w3.org/1999/02/22-rdf-syntax-ns#"
   xmlns:svg="http://www.w3.org/2000/svg"
   xmlns="http://www.w3.org/2000/svg"
   xmlns:xlink="http://www.w3.org/1999/xlink"
   xmlns:sodipodi="http://sodipodi.sourceforge.net/DTD/sodipodi-0.dtd"
   xmlns:inkscape="http://www.inkscape.org/namespaces/inkscape"
   width="180mm"
   height="180mm"
   viewBox="0 0 180 180"
   version="1.1"
   id="svg11011"
   inkscape:version="0.92.2 (5c3e80d, 2017-08-06)"
   sodipodi:docname="WebLogoI.svg">
  <defs
     id="defs11005">
    <linearGradient
       inkscape:collect="always"
       xlink:href="#linearGradient16062"
       id="linearGradient16068-1-5"
       x1="-130.58347"
       y1="146.92097"
       x2="-136.52319"
       y2="145.94458"
       gradientUnits="userSpaceOnUse"
       gradientTransform="matrix(2.0686828,0,0,2.0686828,323.67427,-143.37612)" />
    <linearGradient
       inkscape:collect="always"
       id="linearGradient16062">
      <stop
         style="stop-color:#ffb380;stop-opacity:1;"
         offset="0"
         id="stop16058" />
      <stop
         style="stop-color:#ffb380;stop-opacity:0;"
         offset="1"
         id="stop16060" />
    </linearGradient>
    <linearGradient
       inkscape:collect="always"
       xlink:href="#linearGradient16062"
       id="linearGradient16064-3-5"
       x1="-90.806358"
       y1="164.10536"
       x2="-84.396294"
       y2="165.1638"
       gradientUnits="userSpaceOnUse"
       gradientTransform="matrix(2.0686828,0,0,2.0686828,323.67427,-143.37612)" />
    <linearGradient
       inkscape:collect="always"
       xlink:href="#linearGradient16062"
       id="linearGradient16056-5-1"
       x1="-113.18597"
       y1="133.60555"
       x2="-110.83246"
       y2="130.75206"
       gradientUnits="userSpaceOnUse"
       gradientTransform="matrix(2.0686828,0,0,2.0686828,323.67427,-143.37612)" />
    <linearGradient
       inkscape:collect="always"
       xlink:href="#linearGradient16062"
       id="linearGradient16048-3-2"
       x1="-93.086113"
       y1="144.45053"
       x2="-87.24382"
       y2="143.00684"
       gradientUnits="userSpaceOnUse"
       gradientTransform="matrix(2.0686828,0,0,2.0686828,323.67427,-143.37612)" />
    <linearGradient
       inkscape:collect="always"
       xlink:href="#linearGradient16062"
       id="linearGradient16066-5-9"
       x1="-131.52312"
       y1="164.3911"
       x2="-136.70836"
       y2="167.17383"
       gradientUnits="userSpaceOnUse"
       gradientTransform="matrix(2.0686828,0,0,2.0686828,323.67427,-143.37612)" />
    <linearGradient
       inkscape:collect="always"
       xlink:href="#linearGradient5009"
       id="linearGradient5013-8-9"
       x1="88.214996"
       y1="83.103996"
       x2="182.00052"
       y2="46.956589"
       gradientUnits="userSpaceOnUse" />
    <linearGradient
       inkscape:collect="always"
       id="linearGradient5009">
      <stop
         style="stop-color:#00cdff;stop-opacity:1;"
         offset="0"
         id="stop5005" />
      <stop
         style="stop-color:#00cdff;stop-opacity:0;"
         offset="1"
         id="stop5007" />
    </linearGradient>
    <linearGradient
       inkscape:collect="always"
       xlink:href="#linearGradient5009"
       id="linearGradient15916"
       gradientUnits="userSpaceOnUse"
       x1="88.214996"
       y1="83.103996"
       x2="182.00052"
       y2="46.956589" />
    <linearGradient
       inkscape:collect="always"
       xlink:href="#linearGradient5009"
       id="linearGradient15918"
       gradientUnits="userSpaceOnUse"
       x1="88.214996"
       y1="83.103996"
       x2="182.00052"
       y2="46.956589" />
    <linearGradient
       inkscape:collect="always"
       xlink:href="#linearGradient5009"
       id="linearGradient15920"
       gradientUnits="userSpaceOnUse"
       x1="88.214996"
       y1="83.103996"
       x2="182.00052"
       y2="46.956589" />
    <linearGradient
       inkscape:collect="always"
       xlink:href="#linearGradient5009"
       id="linearGradient15922"
       gradientUnits="userSpaceOnUse"
       x1="88.214996"
       y1="83.103996"
       x2="182.00052"
       y2="46.956589" />
    <linearGradient
       inkscape:collect="always"
       xlink:href="#linearGradient5009"
       id="linearGradient15924"
       gradientUnits="userSpaceOnUse"
       x1="88.214996"
       y1="83.103996"
       x2="182.00052"
       y2="46.956589" />
    <linearGradient
       inkscape:collect="always"
       xlink:href="#linearGradient5009"
       id="linearGradient15926"
       gradientUnits="userSpaceOnUse"
       x1="88.214996"
       y1="83.103996"
       x2="182.00052"
       y2="46.956589" />
    <linearGradient
       inkscape:collect="always"
       xlink:href="#linearGradient5009"
       id="linearGradient15928"
       gradientUnits="userSpaceOnUse"
       x1="88.214996"
       y1="83.103996"
       x2="182.00052"
       y2="46.956589" />
    <linearGradient
       inkscape:collect="always"
       xlink:href="#linearGradient5009"
       id="linearGradient15930"
       gradientUnits="userSpaceOnUse"
       x1="88.214996"
       y1="83.103996"
       x2="182.00052"
       y2="46.956589" />
    <linearGradient
       inkscape:collect="always"
       xlink:href="#linearGradient5009"
       id="linearGradient15932"
       gradientUnits="userSpaceOnUse"
       x1="88.214996"
       y1="83.103996"
       x2="182.00052"
       y2="46.956589" />
    <linearGradient
       inkscape:collect="always"
       xlink:href="#linearGradient5009"
       id="linearGradient15934"
       gradientUnits="userSpaceOnUse"
       x1="88.214996"
       y1="83.103996"
       x2="182.00052"
       y2="46.956589" />
  </defs>
  <sodipodi:namedview
     id="base"
     pagecolor="#ffffff"
     bordercolor="#666666"
     borderopacity="1.0"
     inkscape:pageopacity="0.0"
     inkscape:pageshadow="2"
     inkscape:zoom="0.7"
     inkscape:cx="105.0234"
     inkscape:cy="365.20965"
     inkscape:document-units="mm"
     inkscape:current-layer="layer1"
     showgrid="false"
     inkscape:window-width="1680"
     inkscape:window-height="987"
     inkscape:window-x="-8"
     inkscape:window-y="-8"
     inkscape:window-maximized="1" />
  <metadata
     id="metadata11008">
    <rdf:RDF>
      <cc:Work
         rdf:about="">
        <dc:format>image/svg+xml</dc:format>
        <dc:type
           rdf:resource="http://purl.org/dc/dcmitype/StillImage" />
        <dc:title></dc:title>
      </cc:Work>
    </rdf:RDF>
  </metadata>
  <g
     inkscape:label="Ebene 1"
     inkscape:groupmode="layer"
     id="layer1"
     transform="translate(0,-117)">
    <circle
       style="opacity:1;fill:#ffffff;fill-opacity:1;fill-rule:nonzero;stroke:none;stroke-width:3.29590011;stroke-linejoin:round;stroke-miterlimit:4;stroke-dasharray:none;stroke-dashoffset:0;stroke-opacity:1"
       id="path11003"
       cx="93.527046"
       cy="185.41238"
       r="18.262419"
       inkscape:export-xdpi="360"
       inkscape:export-ydpi="360"
       inkscape:export-filename="C:\Users\irawan.nurhas\g16116-0-6-6.png" />
    <path
       style="fill:#00ccff;fill-opacity:0.99215686;stroke:none;stroke-width:1.52654016;stroke-miterlimit:4;stroke-dasharray:none;stroke-dashoffset:0;stroke-opacity:1"
       id="path13092-37-1-2"
       d="m 4.5638063,283.48154 c 5.317253,-4.48647 10.2785087,-9.34263 15.7353957,-13.68434 1.932232,-1.5374 3.931287,-2.99429 5.896909,-4.49141 11.710612,-8.76874 25.071818,-14.92338 38.535984,-20.72157 4.260376,-1.83469 10.095965,-3.6127 14.55101,-5.05151 5.35455,-1.4413 10.655619,-3.16456 16.095839,-4.30041 1.40944,-0.2943 4.17446,-0.93118 5.780116,-0.33931 0.56318,0.20766 0.90889,0.76668 1.36331,1.15 0.14065,0.60315 0.44127,1.19136 0.4218,1.80938 -0.0531,1.68281 -1.128,3.5186 -1.95277,4.87945 -1.693786,2.79464 -3.782756,5.39662 -5.776546,7.9912 -1.05939,1.82235 -4.65599,4.86294 -5.11229,6.91029 -0.0962,0.43144 0.65667,0.17325 1.51338,0.0447 12.733856,-2.55786 25.069726,-6.63404 37.334346,-10.75798 13.64449,-4.84335 27.50973,-9.04399 41.37662,-13.23649 l -9.53727,6.24018 v 0 c -13.75683,4.0048 -27.45795,8.1831 -40.94033,12.99886 -9.6917,3.26807 -7.77812,2.69291 -17.28723,5.63316 -5.992226,1.85282 -12.078926,3.81989 -18.265927,5.00546 -1.111675,0.21303 -2.246777,0.2885 -3.370189,0.43274 -0.663387,-0.24235 -1.435968,-0.29914 -1.990351,-0.72729 -2.259578,-1.74532 3.917662,-7.24082 4.791995,-8.57393 2.217688,-2.8139 1.859856,-2.29431 3.95767,-5.22136 1.428336,-1.99298 3.238476,-4.19415 3.801696,-6.63278 0.075,-0.32474 -0.0106,-0.6655 -0.0159,-0.99828 -0.28541,-0.19638 -0.51641,-0.5071 -0.85607,-0.58885 -1.52493,-0.36716 -3.853889,0.14722 -5.193714,0.4192 -5.267151,1.06938 -10.41693,2.64877 -15.585178,4.07673 -13.26467,4.52976 -29.103073,13.06296 -38.574063,20.50999 -5.17302,4.15113 -9.871775,8.77478 -14.643868,13.33396 L 4.5638933,283.4817 Z"
       inkscape:connector-curvature="0"
       sodipodi:nodetypes="ccccccccccccccccccscccccccccccccc"
       inkscape:export-xdpi="360"
       inkscape:export-ydpi="360"
       inkscape:export-filename="C:\Users\irawan.nurhas\g16116-0-6-6.png" />
    <g
       style="fill:#ff9955"
       id="g12778-0-9-5-1"
       transform="matrix(3.8203771,0,0,3.8203771,684.07273,-16.364297)"
       inkscape:export-xdpi="360"
       inkscape:export-ydpi="360"
       inkscape:export-filename="C:\Users\irawan.nurhas\g16116-0-6-6.png">
      <g
         style="fill:#ff9955"
         id="g12774-9-3-1-3">
        <path
           inkscape:connector-curvature="0"
           style="fill:#ff9955;stroke-width:0.14247392"
           d="m -154.57362,44.041929 c -4.86221,0 -8.80389,3.941684 -8.80389,8.803892 0,7.546131 8.80389,13.834645 8.80389,13.834645 0,0 8.80389,-6.288514 8.80389,-13.834645 0,-4.86235 -3.94168,-8.803892 -8.80389,-8.803892 z m 0,13.834646 c -2.77839,0 -5.03076,-2.25237 -5.03076,-5.030754 0,-2.778527 2.25237,-5.030755 5.03076,-5.030755 2.77838,0 5.03075,2.252228 5.03075,5.030755 0,2.778384 -2.25237,5.030754 -5.03075,5.030754 z"
           id="path18-9-2-8-2" />
      </g>
    </g>
    <path
       inkscape:connector-curvature="0"
       style="fill:#ff7f2a;stroke-width:0.54430419"
       d="m 74.323199,185.52668 c 0,-5.53942 2.376412,-10.49256 6.125065,-13.99952 2.277933,-11.5779 7.276783,-19.63469 13.09435,-19.63469 -18.5755,0 -33.634214,15.05873 -33.634214,33.63421 0,28.82904 33.634214,52.85354 33.634214,52.85354 0,0 -10.015225,-16.75637 -13.336035,-39.0538 -3.61578,-3.49445 -5.88338,-8.37468 -5.88338,-13.79974 z"
       id="path20-1-3-3-3"
       inkscape:export-xdpi="360"
       inkscape:export-ydpi="360"
       inkscape:export-filename="C:\Users\irawan.nurhas\g16116-0-6-6.png" />
    <g
       transform="matrix(0.23649621,0,0,0.23649621,69.945464,161.91048)"
       id="Calque_2-42-5-5"
       style="fill:url(#linearGradient5013-8-9);fill-opacity:1"
       inkscape:export-xdpi="360"
       inkscape:export-ydpi="360"
       inkscape:export-filename="C:\Users\irawan.nurhas\g16116-0-6-6.png">
      <path
         style="fill:url(#linearGradient15916);fill-opacity:1"
         inkscape:connector-curvature="0"
         d="m 127.62,87.378 2.22,3.12 0.427,-0.086 0.174,-1.948 0.148,-2.162 -0.254,-1.278 -0.685,-0.164 -0.947,0.947 -1.685,0.551 z"
         id="path17-3-8-4" />
      <path
         style="fill:url(#linearGradient15918);fill-opacity:1"
         inkscape:connector-curvature="0"
         d="m 173.387,73.68 c -0.11,-0.312 -0.235,-0.617 -0.352,-0.927 -0.42,-1.118 -0.863,-2.232 -1.336,-3.341 -0.212,-0.5 -0.429,-0.993 -0.652,-1.486 -0.163,-0.363 -0.309,-0.73 -0.48,-1.092 -0.424,-0.904 -0.867,-1.797 -1.323,-2.678 -0.045,-0.089 -0.095,-0.173 -0.14,-0.261 -0.721,-1.38 -1.479,-2.728 -2.27,-4.046 -0.05,-0.085 -0.098,-0.17 -0.15,-0.255 -0.849,-1.404 -1.739,-2.769 -2.664,-4.101 -0.022,-0.031 -0.041,-0.062 -0.063,-0.092 -5.845,-8.404 -13.162,-15.383 -21.425,-20.753 -0.047,-0.031 -0.093,-0.06 -0.14,-0.09 -1.345,-0.87 -2.715,-1.699 -4.108,-2.484 -0.115,-0.065 -0.232,-0.127 -0.349,-0.191 -1.362,-0.759 -2.744,-1.479 -4.147,-2.153 -0.137,-0.069 -0.277,-0.13 -0.415,-0.195 -1.418,-0.671 -2.851,-1.306 -4.307,-1.891 -0.09,-0.036 -0.181,-0.067 -0.271,-0.103 -1.482,-0.588 -2.98,-1.134 -4.495,-1.63 -0.056,-0.019 -0.11,-0.039 -0.167,-0.058 -1.57,-0.511 -3.157,-0.969 -4.759,-1.379 -0.053,-0.014 -0.103,-0.033 -0.158,-0.045 0,0 -10e-4,0.001 -10e-4,0.003 C 112.951,22.831 106.474,22 99.936,22 c -0.468,0 -0.939,0.03 -1.408,0.037 -0.308,0.005 -0.617,0.016 -0.922,0.025 -2.62,0.08 -5.242,0.292 -7.866,0.64 -0.388,0.051 -0.775,0.1 -1.162,0.158 -0.736,0.109 -1.473,0.227 -2.207,0.358 -0.514,0.091 -1.022,0.194 -1.531,0.295 -0.925,0.184 -1.85,0.382 -2.772,0.601 -0.792,0.187 -1.582,0.38 -2.365,0.591 -0.507,0.137 -1.014,0.286 -1.521,0.434 -0.808,0.235 -1.61,0.485 -2.407,0.745 -0.384,0.127 -0.767,0.245 -1.151,0.378 -1.181,0.407 -2.35,0.842 -3.507,1.303 -0.256,0.102 -0.51,0.213 -0.768,0.318 -1.017,0.418 -2.023,0.858 -3.02,1.318 -0.168,0.076 -0.338,0.142 -0.507,0.221 -0.106,0.05 -0.207,0.107 -0.313,0.158 -1.077,0.513 -2.145,1.041 -3.197,1.602 -0.203,0.108 -0.398,0.225 -0.599,0.334 -0.806,0.438 -1.605,0.889 -2.396,1.357 -0.48,0.284 -0.953,0.576 -1.426,0.868 -0.471,0.293 -0.94,0.589 -1.404,0.892 -0.557,0.362 -1.112,0.724 -1.658,1.098 -0.261,0.18 -0.515,0.365 -0.774,0.548 -2.168,1.525 -4.241,3.149 -6.215,4.862 -0.136,0.119 -0.273,0.236 -0.407,0.354 -0.671,0.592 -1.332,1.191 -1.98,1.801 -0.079,0.074 -0.157,0.152 -0.237,0.227 -2.012,1.916 -3.908,3.927 -5.686,6.023 -0.147,0.174 -0.295,0.342 -0.44,0.517 -0.487,0.585 -0.959,1.176 -1.429,1.774 -0.239,0.304 -0.477,0.611 -0.711,0.92 -0.421,0.552 -0.836,1.106 -1.24,1.669 -0.281,0.39 -0.553,0.788 -0.827,1.184 -0.357,0.517 -0.718,1.03 -1.063,1.554 -0.577,0.877 -1.137,1.766 -1.68,2.671 -0.229,0.382 -0.443,0.772 -0.664,1.159 -0.358,0.619 -0.713,1.238 -1.055,1.87 -0.228,0.423 -0.446,0.847 -0.666,1.273 -0.317,0.612 -0.627,1.228 -0.93,1.85 -0.206,0.428 -0.41,0.855 -0.608,1.287 -0.3,0.651 -0.59,1.308 -0.874,1.967 -0.17,0.405 -0.344,0.807 -0.511,1.213 -0.063,0.151 -0.13,0.298 -0.192,0.449 0.009,-0.011 0.02,-0.024 0.031,-0.034 -2.443,6.068 -4.126,12.434 -4.992,18.946 0,0 -0.002,0 -0.003,0 -0.033,0.243 -0.045,0.486 -0.075,0.73 -0.144,1.16 -0.268,2.326 -0.36,3.494 -0.027,0.336 -0.036,0.669 -0.058,1.005 -0.072,1.104 -0.128,2.21 -0.153,3.321 -0.006,0.315 -0.002,0.63 -0.005,0.945 -0.011,1.13 -10e-4,2.259 0.036,3.392 0.01,0.287 0.027,0.572 0.039,0.859 0.052,1.158 0.128,2.314 0.233,3.475 0.023,0.259 0.05,0.516 0.076,0.775 0.117,1.171 0.262,2.341 0.434,3.511 0.036,0.249 0.073,0.498 0.112,0.748 0.181,1.154 0.39,2.307 0.624,3.458 0.055,0.265 0.106,0.531 0.162,0.794 0.236,1.1 0.501,2.198 0.787,3.293 0.081,0.312 0.157,0.624 0.243,0.935 0.274,1.005 0.579,2.003 0.895,3.001 0.125,0.395 0.244,0.793 0.376,1.186 0.294,0.874 0.615,1.739 0.941,2.608 0.187,0.498 0.365,1 0.562,1.493 0.298,0.747 0.624,1.488 0.946,2.231 0.255,0.585 0.498,1.173 0.766,1.75 0.053,0.116 0.099,0.234 0.153,0.351 0.478,1.016 0.978,2.013 1.495,2.997 0.107,0.208 0.223,0.412 0.332,0.618 0.571,1.068 1.162,2.117 1.775,3.149 0.071,0.117 0.138,0.238 0.208,0.356 0.733,1.217 1.496,2.407 2.285,3.573 0.002,0.001 0.002,0.003 0.003,0.004 14.724,21.689 39.166,34.133 64.534,34.133 11.111,0 22.394,-2.384 33.115,-7.422 36.719,-17.256 53.699,-59.475 40.23,-96.898 z m -41.558,94.074 c -10.064,4.728 -20.757,7.126 -31.787,7.126 -22.98,0 -44.506,-10.688 -58.543,-28.206 -0.2,-0.526 -0.4,-1.05 -0.599,-1.576 0.859,0.103 1.72,0.204 2.578,0.307 0.472,-0.145 0.943,-0.287 1.412,-0.43 0.164,-1.022 0.328,-2.047 0.492,-3.072 -0.124,-1.226 -0.245,-2.455 -0.369,-3.683 -0.226,-0.593 -0.45,-1.187 -0.677,-1.782 0.308,-0.204 0.617,-0.408 0.922,-0.614 0.144,-0.574 0.287,-1.147 0.429,-1.721 0.451,-0.306 0.902,-0.614 1.351,-0.92 0.063,-1.044 0.124,-2.089 0.184,-3.133 -0.266,-0.594 -0.532,-1.188 -0.798,-1.783 -0.593,-0.326 -1.187,-0.653 -1.782,-0.981 -0.594,-1.023 -1.187,-2.048 -1.781,-3.072 -0.799,-0.449 -1.596,-0.9 -2.395,-1.351 -0.942,-0.572 -1.883,-1.145 -2.825,-1.72 -0.534,-0.961 -1.066,-1.924 -1.598,-2.888 -0.776,-0.981 -1.555,-1.965 -2.332,-2.947 0,-0.942 0,-1.883 0,-2.826 -0.267,-0.86 -0.533,-1.721 -0.8,-2.579 -0.736,-1.126 -1.473,-2.251 -2.211,-3.378 -0.532,-1.332 -1.065,-2.661 -1.595,-3.992 -0.205,-1.351 -0.411,-2.7 -0.615,-4.054 -0.226,-0.878 -0.451,-1.76 -0.676,-2.64 -0.709,-1.513 -1.419,-3.026 -2.129,-4.541 0.334,-2.806 0.83,-5.586 1.471,-8.327 l 0.857,2.426 1.249,1.853 0.966,0.524 -1.088,-2.377 -0.801,-2.813 -0.039,-2.66 -0.105,-0.879 c 1.92,-6.581 4.728,-12.891 8.369,-18.73 0.603,-0.448 1.205,-0.894 1.807,-1.341 0.752,-0.698 1.505,-1.397 2.256,-2.096 1.115,-0.429 2.231,-0.859 3.346,-1.288 0.618,-0.256 1.235,-0.51 1.853,-0.766 0.067,0.429 0.134,0.861 0.201,1.29 0.618,0.013 1.236,0.027 1.854,0.039 0.886,-0.295 1.773,-0.591 2.66,-0.886 -0.819,-0.295 -1.64,-0.591 -2.457,-0.885 0.536,-0.485 1.073,-0.967 1.609,-1.452 0.431,-0.443 0.862,-0.886 1.291,-1.331 -0.189,-0.469 -0.376,-0.94 -0.564,-1.408 0.509,-0.055 1.021,-0.108 1.531,-0.162 0.577,0.538 1.154,1.073 1.731,1.611 0.604,-0.014 1.208,-0.028 1.813,-0.041 0.552,-0.026 1.101,-0.053 1.654,-0.079 0.402,-0.713 0.805,-1.424 1.207,-2.136 0.282,-1.008 0.563,-2.015 0.846,-3.023 1.316,-1.612 2.633,-3.223 3.95,-4.836 -0.929,0.242 -1.854,0.485 -2.78,0.725 0.683,-0.859 1.369,-1.719 2.053,-2.577 0.471,-0.752 0.94,-1.505 1.41,-2.257 -0.779,0.351 -1.559,0.699 -2.337,1.048 -1.128,0.86 -2.256,1.721 -3.384,2.579 -0.875,0.402 -1.747,0.806 -2.62,1.207 -1.222,0.486 -2.443,0.968 -3.668,1.453 1.142,-0.982 2.284,-1.963 3.424,-2.942 0.293,-0.472 0.584,-0.943 0.875,-1.412 2.944,-2.128 6.073,-4.064 9.385,-5.782 0.529,0.061 1.058,0.122 1.588,0.183 0.069,0.563 0.135,1.128 0.203,1.693 -0.429,0.737 -0.861,1.475 -1.29,2.215 -0.349,0.617 -0.697,1.235 -1.047,1.853 0.98,0.014 1.961,0.028 2.941,0.039 1.048,-0.551 2.095,-1.101 3.143,-1.652 1.209,-0.563 2.418,-1.129 3.627,-1.693 1.074,-0.471 2.148,-0.94 3.223,-1.41 -0.416,-0.242 -0.833,-0.483 -1.249,-0.725 -0.041,-0.417 -0.081,-0.832 -0.12,-1.25 0.455,-0.522 0.912,-1.047 1.369,-1.571 0.24,-0.524 0.484,-1.048 0.726,-1.572 0.362,0.323 0.725,0.644 1.087,0.967 0.173,-0.228 0.349,-0.457 0.524,-0.685 0.417,0.134 0.832,0.27 1.25,0.404 0.739,0.067 1.475,0.134 2.215,0.201 -0.496,0.659 -0.994,1.317 -1.49,1.975 -0.282,0.323 -0.563,0.645 -0.847,0.968 -0.563,0.672 -1.128,1.343 -1.693,2.014 -0.898,0.78 -1.798,1.558 -2.698,2.336 -0.59,0.189 -1.181,0.376 -1.773,0.565 -0.617,0.63 -1.235,1.262 -1.853,1.894 -0.618,0.321 -1.235,0.644 -1.853,0.967 -0.644,0.644 -1.289,1.289 -1.933,1.933 -0.309,0.51 -0.618,1.02 -0.928,1.53 0.162,0.163 0.323,0.323 0.485,0.486 -0.12,0.388 -0.242,0.778 -0.362,1.166 0.398,0.205 0.796,0.409 1.193,0.612 0.417,-0.35 0.834,-0.697 1.25,-1.047 0.577,-0.362 1.154,-0.725 1.732,-1.087 0.683,-0.418 1.371,-0.833 2.054,-1.25 0.726,-0.081 1.451,-0.162 2.176,-0.242 0.876,-0.294 1.746,-0.591 2.62,-0.886 0.443,-0.282 0.886,-0.563 1.332,-0.845 0.441,0.106 0.884,0.215 1.329,0.321 1.115,-0.173 2.231,-0.349 3.345,-0.524 0.443,-0.307 0.886,-0.618 1.33,-0.927 0.538,-0.55 1.075,-1.101 1.612,-1.652 0.778,-0.725 1.558,-1.45 2.337,-2.176 0.443,-0.485 0.886,-0.967 1.33,-1.452 0.592,-0.551 1.183,-1.102 1.774,-1.652 0.47,-0.187 0.941,-0.376 1.409,-0.563 -0.301,-0.576 -0.598,-1.152 -0.893,-1.73 0.604,0.308 1.208,0.617 1.813,0.928 1.087,0.173 2.176,0.349 3.264,0.522 1.048,-0.026 2.095,-0.053 3.143,-0.081 1.317,-0.227 2.633,-0.455 3.948,-0.683 0.336,-0.429 0.673,-0.86 1.008,-1.289 0.74,0.188 1.477,0.375 2.217,0.564 0.349,-0.028 0.697,-0.053 1.048,-0.082 -0.068,-0.55 -0.135,-1.101 -0.203,-1.652 0.429,-0.282 0.86,-0.564 1.291,-0.847 0.63,-0.227 1.262,-0.457 1.893,-0.683 0.738,0.027 1.478,0.053 2.217,0.08 0.036,-0.325 0.077,-0.651 0.114,-0.977 -0.059,-0.051 -0.12,-0.103 -0.179,-0.154 1.425,0.321 2.839,0.686 4.24,1.089 -0.055,0.227 -0.111,0.457 -0.166,0.686 -0.369,-0.218 -0.741,-0.435 -1.11,-0.654 -0.718,0.153 -1.437,0.304 -2.155,0.457 0.197,0.545 0.392,1.088 0.588,1.632 0.882,0.903 1.763,1.807 2.643,2.71 -0.033,0.749 -0.064,1.501 -0.098,2.251 0.619,0.488 1.24,0.98 1.859,1.468 -0.457,0.75 -0.914,1.501 -1.371,2.251 0.293,0.055 0.588,0.109 0.881,0.162 0.272,0.315 0.545,0.63 0.815,0.947 -0.783,0.228 -1.566,0.456 -2.35,0.683 -0.273,0.665 -0.544,1.33 -0.815,1.991 -0.272,0.207 -0.545,0.415 -0.815,0.621 -0.413,0.282 -0.827,0.565 -1.24,0.847 -0.328,-0.25 -0.654,-0.499 -0.98,-0.749 -0.262,-0.207 -0.522,-0.415 -0.784,-0.621 -0.456,-0.14 -0.913,-0.282 -1.37,-0.423 -0.685,-0.054 -1.371,-0.107 -2.056,-0.162 -0.359,-0.054 -0.718,-0.107 -1.077,-0.162 -0.207,-0.033 -0.413,-0.066 -0.619,-0.098 -0.239,-0.219 -0.479,-0.436 -0.717,-0.654 -0.415,0 -0.827,0 -1.241,0 -0.457,0.087 -0.914,0.173 -1.371,0.261 -0.499,0.131 -1.001,0.262 -1.501,0.393 -0.349,0.433 -0.695,0.87 -1.045,1.304 -0.218,0.49 -0.435,0.98 -0.652,1.468 -0.273,0.37 -0.546,0.741 -0.816,1.111 -0.424,0.446 -0.848,0.892 -1.273,1.336 -0.402,0.263 -0.805,0.523 -1.207,0.785 -0.435,0.51 -0.871,1.022 -1.306,1.532 -0.469,0.424 -0.936,0.849 -1.404,1.273 -0.075,0.413 -0.153,0.827 -0.228,1.24 0.033,0.326 0.064,0.652 0.099,0.98 0.087,0.315 0.173,0.63 0.26,0.945 0.153,0.261 0.304,0.523 0.457,0.783 0.228,0.121 0.457,0.239 0.685,0.359 0.392,-0.185 0.783,-0.37 1.175,-0.554 0.022,-0.273 0.043,-0.544 0.065,-0.815 0.523,-0.119 1.045,-0.239 1.567,-0.358 0.023,0.195 0.043,0.39 0.065,0.587 0.24,0.435 0.481,0.87 0.719,1.306 0.184,0.304 0.368,0.61 0.554,0.914 -0.033,0.184 -0.066,0.369 -0.098,0.554 0.022,0.273 0.042,0.544 0.064,0.815 0.38,0.055 0.761,0.108 1.142,0.163 0.227,-0.197 0.457,-0.392 0.684,-0.588 0.392,-0.272 0.784,-0.545 1.175,-0.816 -0.118,-0.348 -0.239,-0.696 -0.357,-1.044 -0.044,-0.349 -0.087,-0.696 -0.131,-1.045 0.575,-0.239 1.153,-0.479 1.73,-0.718 -0.208,-0.315 -0.415,-0.63 -0.621,-0.945 -0.392,-0.228 -0.783,-0.457 -1.175,-0.685 0.024,-0.696 0.044,-1.393 0.066,-2.089 0.468,-0.38 0.936,-0.761 1.402,-1.142 0.142,-0.423 0.284,-0.848 0.423,-1.273 0.207,-0.337 0.415,-0.674 0.621,-1.011 0.499,0.011 1.001,0.024 1.501,0.033 0.076,0.37 0.153,0.74 0.227,1.109 -0.422,0.337 -0.848,0.676 -1.273,1.011 -0.129,0.415 -0.26,0.827 -0.391,1.24 0.22,0.523 0.435,1.046 0.654,1.568 0.207,0.304 0.413,0.61 0.619,0.914 0.588,-0.032 1.176,-0.065 1.763,-0.098 0.293,-0.304 0.586,-0.61 0.879,-0.913 0.665,0.152 1.33,0.303 1.991,0.456 -0.011,0.164 -0.022,0.328 -0.033,0.49 -0.26,0.142 -0.522,0.282 -0.783,0.423 -0.544,0.196 -1.087,0.391 -1.633,0.588 -0.392,0.098 -0.783,0.196 -1.175,0.293 -0.195,0.348 -0.391,0.696 -0.586,1.044 0.14,0.162 0.282,0.326 0.422,0.488 -0.249,0.089 -0.499,0.175 -0.75,0.262 0.078,0.512 0.153,1.022 0.228,1.533 0.196,0.327 0.391,0.653 0.588,0.98 -0.457,0.304 -0.914,0.61 -1.371,0.914 -0.273,0.064 -0.545,0.13 -0.816,0.195 -0.172,-0.153 -0.348,-0.304 -0.521,-0.457 -0.131,0.088 -0.261,0.173 -0.392,0.262 -0.273,0.184 -0.544,0.368 -0.816,0.554 -0.293,0.141 -0.586,0.284 -0.88,0.423 -0.107,0.239 -0.218,0.479 -0.327,0.719 -0.25,-0.22 -0.499,-0.435 -0.749,-0.654 -0.162,-0.26 -0.326,-0.522 -0.49,-0.783 -0.195,0.195 -0.391,0.392 -0.586,0.588 -0.534,-0.043 -1.067,-0.089 -1.599,-0.131 -0.184,-0.293 -0.372,-0.588 -0.556,-0.881 0.108,-0.357 0.219,-0.718 0.326,-1.076 0.142,-0.316 0.284,-0.631 0.425,-0.946 -0.23,-0.337 -0.457,-0.675 -0.687,-1.011 -0.251,0.219 -0.501,0.436 -0.75,0.652 -0.261,0.294 -0.523,0.589 -0.783,0.882 0.162,0.554 0.326,1.109 0.488,1.664 0.022,0.379 0.044,0.76 0.066,1.142 -0.326,0.119 -0.654,0.239 -0.98,0.357 -0.414,0 -0.825,0 -1.239,0 -0.251,0.174 -0.501,0.35 -0.752,0.522 -0.218,0.358 -0.433,0.719 -0.652,1.077 -0.293,0.25 -0.588,0.5 -0.88,0.751 -0.511,0.184 -1.023,0.37 -1.533,0.554 -0.033,0.26 -0.067,0.521 -0.098,0.783 -0.381,0.217 -0.762,0.433 -1.141,0.652 -0.032,0.153 -0.065,0.306 -0.098,0.457 -0.554,-0.066 -1.109,-0.13 -1.663,-0.195 -0.065,0.25 -0.131,0.499 -0.197,0.749 -0.207,0.078 -0.413,0.154 -0.619,0.227 -0.415,-0.151 -0.827,-0.304 -1.24,-0.455 -0.359,0.184 -0.719,0.37 -1.076,0.554 0.162,0.184 0.326,0.369 0.488,0.554 0.555,0.205 1.111,0.413 1.664,0.619 0.077,0.337 0.153,0.674 0.228,1.011 0.197,0.195 0.392,0.393 0.588,0.588 -0.054,0.228 -0.109,0.455 -0.164,0.683 -0.098,0.643 -0.195,1.284 -0.293,1.927 -0.228,0.26 -0.457,0.522 -0.685,0.783 -0.577,0.022 -1.153,0.044 -1.73,0.065 -0.88,-0.174 -1.763,-0.349 -2.642,-0.524 -0.534,0.055 -1.067,0.109 -1.599,0.164 -0.305,0.392 -0.61,0.783 -0.915,1.176 -0.422,0.554 -0.848,1.109 -1.271,1.663 0.055,0.479 0.108,0.957 0.162,1.435 -0.12,0.425 -0.238,0.849 -0.358,1.273 0.141,0.456 0.283,0.915 0.424,1.372 0.249,0.249 0.499,0.499 0.749,0.748 0.468,0.121 0.937,0.239 1.402,0.359 0.013,0.392 0.023,0.783 0.033,1.176 0.196,0.119 0.391,0.238 0.588,0.358 0.402,-0.184 0.805,-0.368 1.206,-0.554 0.892,-0.011 1.784,-0.02 2.677,-0.031 0.207,-0.131 0.413,-0.262 0.619,-0.393 0.359,-0.25 0.718,-0.5 1.077,-0.749 0.207,-0.22 0.414,-0.435 0.619,-0.654 -0.153,-0.404 -0.303,-0.805 -0.456,-1.207 0.075,-0.403 0.153,-0.805 0.228,-1.206 0.392,-0.446 0.783,-0.892 1.176,-1.339 0.521,-0.173 1.044,-0.348 1.567,-0.522 0.271,-0.414 0.544,-0.827 0.814,-1.239 0.054,-0.284 0.109,-0.566 0.162,-0.849 0.446,-0.109 0.892,-0.218 1.339,-0.327 0.446,0.142 0.89,0.284 1.337,0.424 0.723,-0.274 1.446,-0.547 2.169,-0.819 0.529,-0.159 1.058,-0.315 1.587,-0.476 0.282,0.124 0.563,0.247 0.846,0.37 0.123,0.292 0.246,0.582 0.369,0.874 0.354,0.368 0.705,0.739 1.059,1.11 0.316,0.308 0.634,0.618 0.951,0.926 0.477,0.202 0.951,0.405 1.427,0.608 0.396,0.211 0.794,0.423 1.19,0.635 0.292,0.228 0.582,0.457 0.874,0.685 0.184,0.309 0.368,0.617 0.554,0.926 -0.027,0.273 -0.053,0.546 -0.08,0.819 -0.098,0.195 -0.193,0.389 -0.292,0.582 0.116,0.184 0.228,0.37 0.345,0.554 0.159,-0.159 0.317,-0.317 0.476,-0.476 0.184,-0.256 0.37,-0.51 0.555,-0.766 0.08,-0.168 0.159,-0.335 0.237,-0.504 -0.098,-0.165 -0.195,-0.333 -0.291,-0.5 -0.15,-0.15 -0.3,-0.3 -0.45,-0.45 0.089,-0.132 0.177,-0.263 0.264,-0.396 0.072,-0.104 0.142,-0.212 0.212,-0.318 0.247,0.161 0.493,0.318 0.741,0.477 0.106,0.15 0.212,0.3 0.317,0.449 0.142,-0.106 0.282,-0.212 0.423,-0.316 -0.256,-0.265 -0.511,-0.529 -0.766,-0.794 -0.317,-0.22 -0.635,-0.44 -0.952,-0.662 -0.317,-0.237 -0.635,-0.475 -0.952,-0.713 -0.165,0.01 -0.335,0.018 -0.5,0.027 -0.354,-0.106 -0.705,-0.211 -1.058,-0.317 -0.222,-0.282 -0.441,-0.563 -0.661,-0.847 -0.195,-0.37 -0.389,-0.739 -0.582,-1.109 -0.283,-0.133 -0.564,-0.265 -0.846,-0.398 -0.167,-0.298 -0.335,-0.599 -0.502,-0.897 0.051,-0.115 0.104,-0.229 0.159,-0.345 -0.089,-0.174 -0.176,-0.354 -0.264,-0.528 0.105,-0.133 0.211,-0.266 0.317,-0.398 0.3,-0.07 0.599,-0.141 0.897,-0.211 0.248,0.175 0.494,0.353 0.743,0.529 0.193,0.254 0.386,0.51 0.581,0.766 0.211,0.273 0.423,0.546 0.634,0.817 0.237,0.195 0.476,0.389 0.713,0.582 0.282,0.099 0.563,0.195 0.847,0.292 0.15,0.186 0.298,0.371 0.449,0.555 0.493,0.114 0.988,0.228 1.479,0.344 0.265,0.39 0.529,0.775 0.794,1.163 -0.089,0.319 -0.176,0.635 -0.265,0.95 0.238,0.248 0.477,0.495 0.714,0.743 0.361,0.273 0.723,0.548 1.083,0.819 0.477,0.07 0.952,0.14 1.427,0.211 0.169,0.308 0.336,0.617 0.503,0.926 0.644,0.283 1.287,0.563 1.929,0.846 0.114,-0.255 0.23,-0.51 0.345,-0.768 -0.398,-0.273 -0.794,-0.546 -1.19,-0.817 -0.159,-0.275 -0.318,-0.548 -0.478,-0.819 -0.104,-0.256 -0.21,-0.512 -0.316,-0.766 0.292,-0.336 0.582,-0.669 0.873,-1.005 0.415,-0.036 0.827,-0.072 1.242,-0.106 0.371,0 0.741,0 1.111,0 0.387,-0.159 0.775,-0.318 1.164,-0.476 0.168,-0.178 0.338,-0.354 0.507,-0.529 -0.354,-0.708 -0.709,-1.414 -1.063,-2.124 0.582,-0.251 1.162,-0.504 1.744,-0.757 0.757,-0.555 1.517,-1.112 2.275,-1.668 0.555,0.052 1.112,0.102 1.667,0.153 0.456,-0.354 0.91,-0.708 1.365,-1.062 0.682,0.05 1.364,0.1 2.047,0.153 0.707,0.329 1.415,0.657 2.123,0.984 0.531,0.329 1.063,0.659 1.593,0.988 0,0.454 0,0.908 0,1.365 -0.429,0.174 -0.859,0.354 -1.288,0.53 -0.582,0.125 -1.164,0.253 -1.745,0.379 -0.606,-0.228 -1.212,-0.455 -1.819,-0.683 -0.708,-0.052 -1.414,-0.101 -2.123,-0.151 -0.429,0.377 -0.859,0.756 -1.288,1.135 -0.504,0.153 -1.011,0.303 -1.517,0.457 -0.532,0.278 -1.062,0.554 -1.592,0.833 -0.607,0.278 -1.212,0.556 -1.819,0.833 0.05,0.506 0.1,1.011 0.151,1.517 0.532,0.507 1.062,1.011 1.593,1.518 0.555,0.658 1.112,1.313 1.667,1.971 0.481,-0.126 0.96,-0.252 1.442,-0.379 0.175,-0.302 0.354,-0.606 0.53,-0.911 0.329,0.255 0.657,0.507 0.986,0.76 0.684,-0.101 1.365,-0.204 2.047,-0.303 0.228,-0.304 0.455,-0.608 0.683,-0.911 0.708,0.05 1.415,0.102 2.123,0.153 -0.06,0.397 -0.12,0.793 -0.179,1.189 -0.023,1.045 -0.044,2.089 -0.066,3.134 0.088,0.718 0.174,1.435 0.261,2.153 0.228,0.054 0.457,0.109 0.685,0.164 0.173,0.652 0.349,1.305 0.522,1.959 -0.098,0.39 -0.196,0.783 -0.293,1.173 0.055,0.579 0.109,1.158 0.164,1.736 0.253,0.177 0.505,0.355 0.758,0.531 0.531,0.632 1.061,1.265 1.593,1.897 0.454,0.657 0.909,1.313 1.363,1.97 0.329,0.203 0.659,0.406 0.986,0.607 0.381,0.785 0.758,1.569 1.137,2.352 0.38,0.556 0.759,1.113 1.138,1.666 0.504,0.203 1.009,0.404 1.516,0.609 0.279,0.504 0.555,1.009 0.833,1.516 0.582,0.607 1.164,1.212 1.744,1.821 0.763,1.858 1.526,3.717 2.289,5.578 1.315,-0.961 2.628,-1.92 3.942,-2.883 1.062,-1.009 2.121,-2.021 3.184,-3.031 0.354,-0.355 0.706,-0.708 1.062,-1.062 0.05,-0.53 0.1,-1.061 0.151,-1.593 0.482,-0.454 0.96,-0.908 1.442,-1.363 0.329,-0.304 0.657,-0.609 0.986,-0.91 0.126,-0.607 0.253,-1.213 0.379,-1.82 0.303,-0.253 0.607,-0.506 0.909,-0.757 -0.176,-0.532 -0.354,-1.062 -0.532,-1.593 0.255,-0.631 0.506,-1.265 0.759,-1.897 0.101,-0.53 0.202,-1.062 0.302,-1.592 -0.53,-0.379 -1.062,-0.759 -1.593,-1.138 -0.404,0.077 -0.809,0.155 -1.212,0.228 -0.329,-0.228 -0.656,-0.455 -0.986,-0.683 -0.329,-0.757 -0.656,-1.518 -0.986,-2.275 -0.227,0.757 -0.455,1.518 -0.683,2.275 -0.253,0.48 -0.505,0.959 -0.758,1.441 -0.429,0.228 -0.86,0.454 -1.287,0.682 -0.254,-0.1 -0.507,-0.201 -0.758,-0.303 -0.027,-0.329 -0.052,-0.656 -0.077,-0.986 -0.126,-0.429 -0.252,-0.858 -0.379,-1.288 -0.176,0.126 -0.354,0.254 -0.53,0.379 0,0.356 0,0.708 0,1.062 -0.228,-0.279 -0.456,-0.555 -0.683,-0.834 -0.354,-0.428 -0.709,-0.86 -1.063,-1.287 -0.631,-0.582 -1.263,-1.164 -1.895,-1.744 -0.1,-0.506 -0.203,-1.011 -0.303,-1.517 0.454,-0.254 0.91,-0.507 1.365,-0.759 0.556,0.555 1.113,1.112 1.668,1.667 0.228,0.329 0.454,0.659 0.682,0.988 0.304,-0.027 0.608,-0.052 0.909,-0.077 0.456,0.253 0.911,0.504 1.365,0.757 0.303,0 0.607,0 0.91,0 0.405,-0.504 0.809,-1.009 1.213,-1.516 0.251,-0.025 0.506,-0.05 0.758,-0.077 0.252,0.532 0.504,1.063 0.757,1.593 1.011,-0.303 2.022,-0.605 3.033,-0.908 0.706,-0.381 1.415,-0.76 2.121,-1.137 0.482,-0.303 0.961,-0.607 1.442,-0.91 0.051,-0.026 0.1,-0.051 0.153,-0.078 0.503,0.482 1.01,0.961 1.516,1.442 0.53,0.176 1.062,0.355 1.593,0.532 0.377,-0.305 0.756,-0.609 1.135,-0.911 0.506,0.532 1.011,1.064 1.518,1.592 0.607,1.415 1.212,2.83 1.819,4.245 0.556,1.038 1.112,2.073 1.668,3.109 0.632,1.113 1.263,2.225 1.895,3.337 0.354,1.086 0.708,2.173 1.063,3.26 0.152,-1.11 0.302,-2.223 0.455,-3.335 -0.051,-1.77 -0.1,-3.541 -0.153,-5.307 -0.379,-0.735 -0.758,-1.466 -1.137,-2.198 0.176,-1.214 0.354,-2.429 0.53,-3.639 -0.202,-1.493 -0.405,-2.985 -0.606,-4.475 -0.077,-0.833 -0.153,-1.667 -0.228,-2.502 0.139,-0.415 0.277,-0.83 0.415,-1.245 11.186,35.216 -5.178,74.235 -39.501,90.365 z"
         id="path19-6-0-5" />
      <path
         style="fill:url(#linearGradient15920);fill-opacity:1"
         inkscape:connector-curvature="0"
         d="m 88.035,46.609 -0.644,-1.571 -1.126,-0.079 -1.372,-0.163 -1.49,-0.203 -0.725,0.606 0.403,0.725 -0.525,0.847 0.685,0.563 1.612,0.202 1.491,-0.403 z"
         id="path21-1-5-5" />
      <path
         style="fill:url(#linearGradient15922);fill-opacity:1"
         inkscape:connector-curvature="0"
         d="m 85.236,61.568 1.456,-0.37 0.925,-0.265 0.661,-0.899 0.342,-1.004 0.477,-0.554 -0.634,-1.192 -1.11,-0.184 -0.635,1.084 -0.687,0.264 -0.133,0.953 -0.423,0.318 -0.079,0.473 -0.476,0.373 -0.105,0.819 z"
         id="path23-8-1-2" />
      <path
         style="fill:url(#linearGradient15924);fill-opacity:1"
         inkscape:connector-curvature="0"
         d="m 88.199,63.632 0.95,-0.398 0.529,0.157 0.951,-0.474 h 1.615 l 1.665,-0.159 0.475,-0.424 -0.316,-0.556 0.713,-0.659 -0.819,-0.662 -0.607,-0.898 -0.398,-0.927 -0.529,-0.605 -0.051,-0.61 -0.688,-0.609 0.106,-0.713 0.686,-0.502 0.133,-0.952 -0.053,-1.188 -3.094,0.237 -0.37,1.454 0.213,1.243 0.316,1.162 0.872,0.688 0.556,1.058 -0.766,0.58 h -0.531 l 0.053,1.058 -0.608,0.292 -0.262,0.45 0.449,0.581 z"
         id="path25-1-7-5" />
      <path
         style="fill:url(#linearGradient15926);fill-opacity:1"
         inkscape:connector-curvature="0"
         d="m 142.13,152.617 2.176,-0.969 1.167,-1.851 1.895,-3.345 1.449,-2.82 1.492,-2.78 -0.161,-3.908 -1.089,1.973 h -0.362 l -0.483,0.888 -1.25,1.53 -1.449,1.208 -1.37,0.766 -0.243,0.886 -0.524,0.646 0.243,1.41 -0.282,1.089 -0.766,0.764 -0.846,1.169 -0.644,0.928 0.362,0.604 -0.404,0.967 z"
         id="path27-7-1-2" />
      <path
         style="fill:url(#linearGradient15928);fill-opacity:1"
         inkscape:connector-curvature="0"
         d="m 112.828,165.15 -1.848,-1.156 0.229,-0.925 -1.502,-2.889 -0.922,-0.115 -1.158,-4.852 -3.12,-4.739 0.348,-3.12 2.657,-3.351 -1.155,-2.543 0.462,-1.733 -1.85,-2.889 -3.93,-5.201 1.389,-5.084 -1.504,-2.311 -3.928,0.114 -1.272,-0.575 -1.617,-2.312 -6.818,1.27 -1.502,0.809 -2.196,-0.923 -5.432,0.923 -5.431,-4.968 -3.812,-2.543 -3.12,-1.155 1.962,-6.357 1.85,-4.391 -0.578,-4.507 1.271,-3.004 1.85,-1.387 0.345,-1.847 2.427,-2.197 4.276,-2.079 1.272,-4.278 2.312,-1.385 1.848,-1.733 1.618,0.923 1.966,0.464 2.424,-1.042 2.775,-1.153 h 4.044 l 2.773,0.461 1.502,-0.809 1.734,0.462 -1.156,3.35 1.04,0.926 4.276,1.617 1.735,1.272 3.12,1.04 1.385,-0.809 -0.345,-1.503 0.808,-1.156 4.276,0.925 4.738,0.462 1.964,-0.231 2.312,0.462 4.161,7.05 1.502,2.312 1.385,0.923 1.502,4.045 1.735,1.27 1.618,2.658 2.195,1.735 2.658,2.426 0.924,1.271 1.156,-1.039 1.617,-0.232 1.041,-1.272 2.773,-1.965 v 4.624 l -2.427,6.471 -4.16,6.126 -4.623,5.892 -1.039,3.928 0.691,4.508 0.233,5.315 -3.005,2.658 -3.004,1.851 -1.849,1.847 0.463,2.89 -0.811,1.503 -3.466,1.731 -0.462,2.083 -2.31,1.847 -3.93,3.235 -3.582,1.733 -3.581,1.504 z"
         id="path29-83-4-3" />
      <path
         style="fill:url(#linearGradient15930);fill-opacity:1"
         inkscape:connector-curvature="0"
         d="m 107.741,79.062 -1.39,0.511 -1.145,0.172 -0.147,0.608 1.634,0.585 0.853,0.294 0.608,-0.671 -0.285,-0.646"
         id="path31-8-1-6" />
      <path
         style="fill:url(#linearGradient15932);fill-opacity:1"
         inkscape:connector-curvature="0"
         d="m 123.683,82.085 0.975,-0.342 0.901,-0.511 1.072,-0.879 v 0.367 l -0.317,0.39 -0.146,0.463 0.195,0.219 0.268,0.438 -0.342,0.293 -0.535,0.244 -0.597,0.39 h -1.474 l -0.342,-0.39"
         id="path33-22-0-5" />
      <path
         style="fill:url(#linearGradient15934);fill-opacity:1"
         inkscape:connector-curvature="0"
         d="m 99.826,75.067 -0.295,0.453 0.146,0.454 0.468,0.375 v -0.348 l 0.135,-0.641"
         id="path35-03-4-9" />
    </g>
    <text
       xml:space="preserve"
       style="font-style:normal;font-weight:normal;font-size:12.59364128px;line-height:1.25;font-family:sans-serif;letter-spacing:0px;word-spacing:0px;fill:#00cdff;fill-opacity:0.99215686;stroke:none;stroke-width:0.314841"
       x="39.006336"
       y="236.1337"
       id="text13432-6-7-3"
       transform="scale(0.83425801,1.1986699)"
       inkscape:export-xdpi="360"
       inkscape:export-ydpi="360"
       inkscape:export-filename="C:\Users\irawan.nurhas\g16116-0-6-6.png"><tspan
         sodipodi:role="line"
         id="tspan13430-2-0-0"
         x="39.006336"
         y="236.1337"
         style="font-style:normal;font-variant:normal;font-weight:bold;font-stretch:normal;font-family:sans-serif;-inkscape-font-specification:'sans-serif Bold';fill:#00cdff;fill-opacity:0.99215686;stroke-width:0.314841">Hochschule Ruhr West</tspan></text>
    <path
       style="fill:url(#linearGradient16066-5-9);fill-opacity:1;stroke:none;stroke-width:2.00248504;stroke-miterlimit:4;stroke-dasharray:none;stroke-dashoffset:0;stroke-opacity:1"
       id="path14522-6-4"
       d="m 51.594647,196.69701 c -2.143328,0.32241 -4.29091,0.62419 -6.443515,0.87943 -1.889232,0.22289 -3.79151,0.2703 -5.681751,0.47717 -0.871635,0.17853 -1.780426,0.23486 -2.536145,0.73941 5.56908,-3.32526 3.295776,-2.42412 2.573733,-0.88879 -0.151036,0.33339 -0.32164,0.62197 -0.644158,0.80933 -1.228164,0.71357 -2.457964,1.42425 -3.686998,2.13635 3.405651,-1.96353 4.396914,-2.67722 3.184072,-1.81363 0,0 -3.826882,1.49282 -3.826882,1.49282 v 0 c 1.389545,-0.82508 0.112773,-0.0672 3.838231,-2.25943 -1.111472,0.6464 -2.219767,1.29823 -3.334326,1.9392 -0.05794,0.0333 0.104069,-0.0855 0.163644,-0.11585 0.210172,-0.10674 0.166113,-0.005 0.345993,-0.16115 0.129875,-0.11274 0.145196,-0.19217 0.216992,-0.3471 0.12804,-0.20933 0.187371,-0.43794 0.31826,-0.64584 0.941359,-1.49527 1.574742,-1.47675 4.028744,-2.70507 0.81858,-0.35225 1.710313,-0.45262 2.587018,-0.57357 1.858119,-0.15515 3.725704,-0.18018 5.577968,-0.41125 2.199817,-0.26502 4.397836,-0.57474 6.571704,-1.00581 0,0 -3.252536,2.45366 -3.252536,2.45366 z"
       inkscape:connector-curvature="0"
       inkscape:transform-center-x="19.849029"
       inkscape:transform-center-y="4.8752005"
       inkscape:export-xdpi="360"
       inkscape:export-ydpi="360"
       inkscape:export-filename="C:\Users\irawan.nurhas\g16116-0-6-6.png" />
    <path
       style="fill:url(#linearGradient16048-3-2);fill-opacity:1;stroke:none;stroke-width:2.00248504;stroke-miterlimit:4;stroke-dasharray:none;stroke-dashoffset:0;stroke-opacity:1"
       id="path14528-2-2"
       d="m 127.85055,158.57231 c 1.15796,-1.73345 2.37032,-3.4245 3.63375,-5.0824 0.66035,-0.88011 1.38519,-1.70652 2.24885,-2.39041 0.46308,-0.34555 0.95619,-0.64783 1.44434,-0.95606 0.0769,-0.0476 0.14524,-0.1113 0.22859,-0.14626 0.22385,-0.0929 0.46147,-0.10116 0.69629,-0.14005 0.41456,-0.0689 0.82157,-0.14604 1.23932,-0.19652 1.04992,-0.21196 2.08883,-0.47195 3.12725,-0.73329 0.75374,-0.25196 1.54802,-0.35246 2.33896,-0.29563 0.6776,0.12391 1.33045,0.23631 2.00848,0.0751 0.68745,-0.26196 1.306,-0.67393 1.92242,-1.0693 0,0 -1.47221,3.79735 -1.47221,3.79735 v 0 c -0.65469,0.40395 -1.31682,0.83914 -2.07211,1.02481 -0.70663,0.0947 -1.38736,-0.0238 -2.08777,-0.12391 -0.75683,-0.0124 -1.49786,0.0958 -2.22304,0.31739 -1.0562,0.24374 -2.10415,0.52485 -3.16953,0.7268 -0.69049,0.10364 -1.42877,0.17169 -2.01558,0.57982 -0.47524,0.3033 -0.95497,0.60274 -1.39249,0.95989 -0.80041,0.68155 -1.48521,1.4787 -2.1226,2.31321 -1.28962,1.67637 -2.51445,3.39828 -3.63621,5.19266 0,0 1.30242,-3.85427 1.30242,-3.85427 z"
       inkscape:connector-curvature="0"
       inkscape:transform-center-x="-1.1266387"
       inkscape:transform-center-y="0.17297645"
       inkscape:export-xdpi="360"
       inkscape:export-ydpi="360"
       inkscape:export-filename="C:\Users\irawan.nurhas\g16116-0-6-6.png" />
    <path
       inkscape:transform-center-y="-21.493098"
       inkscape:transform-center-x="4.502953"
       inkscape:connector-curvature="0"
       d="m 89.659744,142.93141 c -0.63967,-1.98409 -1.212416,-3.98444 -1.727418,-6.00425 -0.279805,-1.0641 -0.477515,-2.14545 -0.477276,-3.24708 0.01643,-0.57754 0.0861,-1.1518 0.147512,-1.72582 0.01015,-0.09 0.0048,-0.18287 0.02801,-0.26994 0.06605,-0.23317 0.207381,-0.42445 0.322566,-0.63279 0.203367,-0.36775 0.395761,-0.73459 0.615459,-1.09349 0.485827,-0.95463 0.927147,-1.93039 1.367077,-2.90664 0.27048,-0.74727 0.68499,-1.43227 1.22067,-2.01695 0.5179,-0.45418 1.01141,-0.89613 1.306,-1.52774 0.22158,-0.70151 0.2827,-1.44218 0.35561,-2.17087 0,0 2.06235,3.51195 2.06235,3.51195 v 0 c -0.0902,0.76399 -0.15988,1.55328 -0.48331,2.2606 -0.36445,0.61278 -0.88014,1.07273 -1.39355,1.55952 -0.47993,0.58536 -0.85511,1.23358 -1.13167,1.93961 -0.46481,0.97926 -0.89517,1.97524 -1.39843,2.93576 -0.3475,0.6056 -0.75273,1.22646 -0.79714,1.93993 -0.058,0.56073 -0.12059,1.12279 -0.11214,1.68752 0.0372,1.05065 0.23685,2.08242 0.49515,3.10019 0.51323,2.05184 1.1024,4.08114 1.81231,6.07467 0,0 -2.21237,-3.41424 -2.21237,-3.41424 z"
       id="path14567-5-7"
       style="fill:url(#linearGradient16056-5-1);fill-opacity:1;stroke:none;stroke-width:2.00248504;stroke-miterlimit:4;stroke-dasharray:none;stroke-dashoffset:0;stroke-opacity:1"
       inkscape:export-xdpi="360"
       inkscape:export-ydpi="360"
       inkscape:export-filename="C:\Users\irawan.nurhas\g16116-0-6-6.png" />
    <path
       inkscape:transform-center-y="2.2631281"
       inkscape:transform-center-x="-20.319008"
       inkscape:connector-curvature="0"
       d="m 135.82483,196.10562 c 2.1287,0.40776 4.25458,0.83651 6.36979,1.31083 1.85593,0.41737 3.66597,1.00444 5.51762,1.43719 0.88139,0.12164 1.75733,0.36995 2.63775,0.14501 -6.35741,1.2866 -3.91384,1.19175 -2.72284,-0.0165 0.25318,-0.26429 0.51003,-0.47981 0.87642,-0.54942 1.39543,-0.26508 2.79154,-0.52692 4.18727,-0.79034 -3.86451,0.7208 -5.03654,1.06471 -3.60568,0.65302 0,0 4.10542,-0.13694 4.10542,-0.13694 v 0 c -1.58464,0.31666 -0.12867,0.026 -4.37078,0.85622 1.26305,-0.24053 2.52493,-0.48721 3.78914,-0.72156 0.0658,-0.0124 -0.12649,0.0459 -0.19278,0.055 -0.23371,0.0308 -0.15805,-0.0513 -0.37991,0.037 -0.15994,0.0631 -0.20081,0.13302 -0.31996,0.25532 -0.19032,0.15494 -0.32223,0.3508 -0.51476,0.50343 -1.38452,1.09771 -1.97582,0.86985 -4.69851,1.21328 -0.88908,0.0602 -1.76351,-0.14108 -2.63061,-0.31832 -1.80418,-0.47087 -3.57403,-1.06759 -5.39788,-1.46492 -2.16295,-0.48072 -4.33909,-0.91868 -6.53271,-1.23418 0,0 3.88292,-1.23396 3.88292,-1.23396 z"
       id="path14569-4-1"
       style="fill:url(#linearGradient16064-3-5);fill-opacity:1;stroke:none;stroke-width:2.00248504;stroke-miterlimit:4;stroke-dasharray:none;stroke-dashoffset:0;stroke-opacity:1"
       inkscape:export-xdpi="360"
       inkscape:export-ydpi="360"
       inkscape:export-filename="C:\Users\irawan.nurhas\g16116-0-6-6.png" />
    <path
       style="fill:url(#linearGradient16068-1-5);fill-opacity:1;stroke:none;stroke-width:2.00248504;stroke-miterlimit:4;stroke-dasharray:none;stroke-dashoffset:0;stroke-opacity:1"
       id="path14528-9-0-7"
       d="m 57.508126,161.45488 c -1.481537,-1.46666 -3.007718,-2.88086 -4.57743,-4.25235 -0.823698,-0.72946 -1.698665,-1.39481 -2.68177,-1.89193 -0.523268,-0.2449 -1.06625,-0.44402 -1.606481,-0.64769 -0.08417,-0.0323 -0.164278,-0.0809 -0.253274,-0.0972 -0.237867,-0.0466 -0.472395,-0.006 -0.710256,0.002 -0.419917,0.0145 -0.834094,0.0213 -1.253526,0.0554 -1.07113,0.002 -2.141059,-0.0443 -3.210797,-0.0925 -0.788863,-0.0962 -1.587243,-0.0355 -2.350744,0.17832 -0.639184,0.25697 -1.256285,0.49783 -1.952864,0.4755 -0.725913,-0.11915 -1.414423,-0.39898 -2.097575,-0.6629 0,0 2.202475,3.42588 2.202475,3.42588 v 0 c 0.722282,0.26463 1.458098,0.55856 2.235218,0.58945 0.711322,-0.0482 1.354561,-0.30093 2.0207,-0.53937 0.739055,-0.16364 1.486752,-0.20603 2.241605,-0.13384 1.083601,0.0273 2.166618,0.0931 3.250895,0.0778 0.697255,-0.0368 1.434182,-0.11813 2.090807,0.16466 0.52656,0.20128 1.056305,0.39944 1.55681,0.6609 0.920632,0.50764 1.751146,1.15152 2.542668,1.84158 1.599046,1.38435 3.14382,2.82616 4.601829,4.3599 0,0 -2.047424,-3.51563 -2.047424,-3.51563 z"
       inkscape:connector-curvature="0"
       inkscape:transform-center-x="0.52613252"
       inkscape:transform-center-y="0.92224563"
       inkscape:export-xdpi="360"
       inkscape:export-ydpi="360"
       inkscape:export-filename="C:\Users\irawan.nurhas\g16116-0-6-6.png" />
    <g
       id="g16116-7-9"
       transform="matrix(2.0258162,-0.93694849,0.93694849,2.0258162,156.24637,-205.03409)"
       inkscape:export-xdpi="360"
       inkscape:export-ydpi="360"
       inkscape:export-filename="C:\Users\irawan.nurhas\g16116-0-6-6.png">
      <circle
         r="2.6930804"
         cy="181.26961"
         cx="-78.759697"
         id="path13143-4-9-0"
         style="fill:#ff9955;fill-opacity:1;stroke:none;stroke-width:0.96799999;stroke-miterlimit:4;stroke-dasharray:none;stroke-dashoffset:0;stroke-opacity:1" />
      <path
         id="circle16093-6-9"
         transform="scale(0.26458333)"
         d="m -297.67383,674.93555 a 10.178572,10.178572 0 0 0 -10.17969,10.17773 10.178572,10.178572 0 0 0 10.17969,10.17969 10.178572,10.178572 0 0 0 2.00586,-0.21094 11.504397,11.504397 0 0 1 -7.01367,-10.58984 11.504397,11.504397 0 0 1 5.10937,-9.55078 10.178572,10.178572 0 0 0 -0.10156,-0.006 z"
         style="fill:#ff7f2a;fill-opacity:1;stroke:none;stroke-width:3.65858269;stroke-miterlimit:4;stroke-dasharray:none;stroke-dashoffset:0;stroke-opacity:1"
         inkscape:connector-curvature="0" />
    </g>
    <g
       id="g16116-0-6-6"
       transform="matrix(2.108703,-1.246839,1.246839,2.108703,-48.987847,-197.31877)"
       inkscape:export-xdpi="360"
       inkscape:export-ydpi="360"
       inkscape:export-filename="C:\Users\irawan.nurhas\g16116-0-6-6.png">
      <circle
         r="2.6930804"
         cy="181.26961"
         cx="-78.759697"
         id="path13143-4-5-9-5"
         style="fill:#ff9955;fill-opacity:1;stroke:none;stroke-width:0.96799999;stroke-miterlimit:4;stroke-dasharray:none;stroke-dashoffset:0;stroke-opacity:1" />
      <path
         id="circle16093-2-4-6"
         transform="scale(0.26458333)"
         d="m -297.67383,674.93555 a 10.178572,10.178572 0 0 0 -10.17969,10.17773 10.178572,10.178572 0 0 0 10.17969,10.17969 10.178572,10.178572 0 0 0 2.00586,-0.21094 11.504397,11.504397 0 0 1 -7.01367,-10.58984 11.504397,11.504397 0 0 1 5.10937,-9.55078 10.178572,10.178572 0 0 0 -0.10156,-0.006 z"
         style="fill:#ff7f2a;fill-opacity:1;stroke:none;stroke-width:3.65858269;stroke-miterlimit:4;stroke-dasharray:none;stroke-dashoffset:0;stroke-opacity:1"
         inkscape:connector-curvature="0" />
    </g>
  </g>
</svg>
